<svg xmlns="http://www.w3.org/2000/svg" xml:space="preserve" viewBox="0 0 132.292 99.219"><path fill="#f1f1f1" d="M-3.704-4.233h139.7v107.421h-139.7z"/><g transform="translate(16.65 -42.565)"><path fill="#fff" stroke="#fff" stroke-width="3.466" d="M-17.266 80.648 80.9 84.095m-99.82 15.718s132.081-.552 137.045 2.343"/><path fill="#ccc" stroke="#fff" stroke-width="3.466" d="m24.094 81.982.78 71.948"/><path fill="#fff" stroke="#fff" stroke-width="3.466" d="M24.484 102.65s14.818 15.013 57.714 42.7m11.699-44.845s0 26.712-3.9 43.48"/><path fill="none" stroke="#fff" stroke-width="3.466" d="m90.777 41.426 17.939 33.147 10.333-16.379"/><path fill="#fff" stroke="#fff" stroke-width="3.466" d="m95.067 47.665 9.749-7.994M7.715 56.244l-47.38 2.535m57.715-.975 52.644 3.51M61.53 41.036l28.467 60.249"/><path fill="#fff" d="m-17.658 123.868 24.794 20.676-24.794-.626z"/><path fill="none" stroke="#fff" stroke-width="3.466" d="M70.418 41.253s5.19 27.3 13.873 32.223c8.682 4.923 15.485 0 22.108 4.565 6.624 4.564 17.812 3.67 17.812 3.67"/><path fill="#fff" stroke="#fff" stroke-width="3.466" d="M107.205 100.686c.358-.09 5.28-16.827.358-22.556"/><path fill="none" stroke="#fff" stroke-width="8.996" d="M-18.371 102.981s67.862 13.572 88.94 43.006"/><path fill="none" stroke="#fff" stroke-width="3.466" d="M5.034 99.93S22.76 72.136 17.79 40.313"/><path fill="gray" d="M31.895 87.756s-2.347-3.622-2.165-4.03c-.204-1.327 1.665-1.81 1.665-1.81 2.121.215 1.952 1.83 1.952 1.83.273.397-1.452 4.01-1.452 4.01z"/><circle cx="31.549" cy="83.766" r=".907" fill="#e6e6e6"/><path fill="gray" d="m27.88 76.12 2.974 2.975 2.674-2.674h-1.972v-5.515h-2.072v5.147z"/></g><g fill="gray" font-family="Arial" font-weight="400"><text xml:space="preserve" stroke-width="3.78" font-size="8" style="-inkscape-font-specification:&quot;Arial&quot;;white-space:pre;shape-inside:url(#a)" transform="rotate(89.307 74.504 35.665) scale(.26458)"><tspan x="310.076" y="264.64">Carrer de Pau Alsina</tspan></text><text xml:space="preserve" stroke-width="3.78" font-size="8" style="-inkscape-font-specification:&quot;Arial&quot;;white-space:pre;shape-inside:url(#b)" transform="rotate(93.157 94.01 84.42) scale(.26458)"><tspan x="310.076" y="264.64">C/ de Sardenya</tspan></text><text xml:space="preserve" stroke-width="3.78" font-size="8" style="-inkscape-font-specification:&quot;Arial&quot;;white-space:pre;shape-inside:url(#c)" transform="rotate(64.278 99.28 58.89) scale(.26458)"><tspan x="211.623" y="198.667">Av. de Pompeu Fabra   Pl. de Sanllehy</tspan></text><text xml:space="preserve" stroke-width="3.78" font-size="10.667" style="-inkscape-font-specification:&quot;Arial&quot;;white-space:pre;shape-inside:url(#d)" transform="rotate(16.223 .235 82.355) scale(.26458)"><tspan x="17.762" y="237.146">Trav. de Dalt</tspan></text><text xml:space="preserve" stroke-width="13.3" font-size="8" style="-inkscape-font-specification:&quot;Arial&quot;;white-space:pre;shape-inside:url(#e)" transform="rotate(4.2 49.756 27.847) scale(.26458)"><tspan x="191.324" y="64.688">C/ de Miquel i Badia</tspan></text><text xml:space="preserve" stroke-width="3.78" font-size="10.667" style="-inkscape-font-specification:&quot;Arial&quot;;white-space:pre;shape-inside:url(#f)" transform="rotate(32.551 62.927 78.975) scale(.26458)"><tspan x="212.131" y="310.224">Ronda del Guinardó</tspan></text><text xml:space="preserve" stroke-width="13.3" font-size="8" style="-inkscape-font-specification:&quot;Arial&quot;;white-space:pre;shape-inside:url(#g)" transform="rotate(2.283 34.564 22.961) scale(.26458)"><tspan x="196.471" y="150.524">C. de la Mare de Déu de la Salut</tspan></text><text xml:space="preserve" stroke-width="13.3" font-size="8" style="-inkscape-font-specification:&quot;Arial&quot;;white-space:pre;shape-inside:url(#h)" transform="translate(1.804 .712) scale(.26458)"><tspan x="203.467" y="217.808">Av. de la Mare de Déu de Montserrat </tspan></text></g></svg>