<?xml version="1.0" encoding="UTF-8" standalone="no"?>
<!-- Created with Inkscape (http://www.inkscape.org/) -->

<svg
   width="49.149902"
   height="49.149902"
   viewBox="0 0 13.004245 13.004245"
   version="1.1"
   id="svg2346"
   xml:space="preserve"
   xmlns="http://www.w3.org/2000/svg"
   xmlns:svg="http://www.w3.org/2000/svg"><defs
     id="defs2343"><rect
       x="4.4516129"
       y="4.3548388"
       width="30.213711"
       height="9.0584679"
       id="rect302" /><rect
       x="4.4516129"
       y="4.3548388"
       width="30.213711"
       height="9.0584679"
       id="rect44121" /><rect
       x="4.4516129"
       y="4.3548388"
       width="39.838825"
       height="11.183468"
       id="rect44604" /></defs><g
     id="layer1"
     transform="translate(-2.0774874,-2.487821)"
     style="display:inline"><circle
       style="fill:#64829b;stroke:#64829b;stroke-width:0.929;stroke-dasharray:none;stroke-opacity:1"
       id="path2531"
       cx="8.5796099"
       cy="-8.9899435"
       r="6.0376225"
       transform="scale(1,-1)" /><text
       xml:space="preserve"
       style="font-size:9.38389px;font-family:'Playfair Display';-inkscape-font-specification:'Playfair Display';display:none;opacity:1;fill:#ffffff;fill-opacity:1;stroke:none;stroke-width:1.00012"
       x="4.3744512"
       y="12.203571"
       id="text2951"><tspan
         id="tspan2949"
         style="font-size:9.38389px;fill:#ffffff;fill-opacity:1;stroke:none;stroke-width:1.00012"
         x="4.3744512"
         y="12.203571">M</tspan></text><g
       aria-label="M"
       id="text6497"
       style="font-size:9.38389px;font-family:'Playfair Display';-inkscape-font-specification:'Playfair Display';display:inline;opacity:1;fill:#ffffff;stroke-width:1.00012"><path
         id="path510"
         d="m 4.7687961,5.5599851 v 0.187585 c 0.2127013,0.0063 0.3721732,0.03114 0.4785238,0.07493 0.1126065,0.03754 0.1872571,0.112703 0.2247924,0.22531 0.037535,0.10635 0.056327,0.27496 0.056327,0.506429 V 8.524662 h 0.179834 c 0.00761,-1.2539969 0.036174,-2.3641969 0.036174,-2.3641969 L 8.1091607,12.250533 H 8.2595391 L 10.5209,6.1770021 v 5.0317339 c 0,0.225213 -0.0188,0.394339 -0.05633,0.506946 -0.03753,0.112609 -0.112702,0.187779 -0.225309,0.225309 -0.106351,0.03753 -0.2658225,0.06242 -0.4785235,0.07493 v 0.187585 c 0.1313743,-0.01247 0.3035465,-0.0186 0.5162475,-0.0186 0.212701,-0.0063 0.440732,-0.0093 0.684713,-0.0093 0.218957,0 0.434805,0.003 0.647505,0.0093 0.218958,0 0.400784,0.0061 0.54467,0.0186 v -0.187585 c -0.212701,-0.01251 -0.375735,-0.0374 -0.488342,-0.07493 -0.106353,-0.03754 -0.177961,-0.112702 -0.215491,-0.225309 -0.03753,-0.112607 -0.05633,-0.281733 -0.05633,-0.506946 V 6.5542401 c 0,-0.23147 0.0188,-0.400079 0.05633,-0.50643 0.03754,-0.112606 0.10914,-0.187774 0.215491,-0.225309 0.112607,-0.04379 0.275641,-0.06868 0.488342,-0.07493 v -0.187585 c -0.143886,0.0063 -0.325712,0.01235 -0.54467,0.0186 -0.2127,0.0062 -0.428548,0.0093 -0.647505,0.0093 H 10.736907 10.5209 L 8.5024183,10.996346 6.4389784,5.5599851 c -0.1000947,0.0063 -0.2250288,0.01235 -0.3751709,0.0186 -0.1438862,0.0062 -0.285083,0.0093 -0.4227132,0.0093 -0.156398,0 -0.3158699,-0.003 -0.4785238,-0.0093 -0.1563979,-0.0063 -0.2874237,-0.01235 -0.3937744,-0.0186 z m 0.7596435,5.5340289 v 0.02119 c 0,0.225212 -0.018792,0.403476 -0.056327,0.534851 -0.037535,0.125119 -0.1121859,0.215518 -0.2247924,0.271818 -0.1063506,0.05005 -0.2658222,0.08154 -0.4785238,0.09405 v 0.187585 c 0.1063507,-0.01247 0.2373765,-0.0186 0.3937744,-0.0186 0.1626539,-0.0063 0.3221258,-0.0093 0.4785238,-0.0093 0.1626539,0 0.3348258,0.003 0.5162475,0.0093 0.1814217,0 0.3287102,0.0061 0.4413168,0.0186 v -0.187585 c -0.2439809,-0.01251 -0.428853,-0.044 -0.5539714,-0.09405 -0.1188626,-0.0563 -0.2001218,-0.146699 -0.2439128,-0.271818 -0.037535,-0.131375 -0.046927,-0.355819 -0.056327,-0.534851 -3.589e-4,-0.0068 -6.805e-4,-0.01429 -0.00103,-0.02119 z"
         style="display:inline" /></g><path
       style="display:none;opacity:1;fill:#64829b;fill-opacity:1;stroke:none;stroke-width:1.64467;stroke-dasharray:none;stroke-opacity:1"
       d="M 5.3088046,8.5245442 H 5.9890498 V 11.093896 H 5.2764123 Z"
       id="path3159" /></g><g
     id="g703"
     transform="translate(-2.0774874,-2.487821)"
     style="display:none"><circle
       style="fill:none;fill-opacity:1;stroke:#64829b;stroke-width:0.132292;stroke-dasharray:none;stroke-opacity:1"
       id="circle691"
       transform="scale(1,-1)"
       cy="-8.9899435"
       cx="8.5796099"
       r="6.4345393" /><path
       id="path697"
       d="m 4.7687961,5.5599851 v 0.1875855 c 0.2127013,0.00626 0.3721732,0.031139 0.4785238,0.074931 0.1126065,0.037535 0.1872571,0.1127026 0.2247924,0.2253092 0.037535,0.1063506 0.056327,0.27496 0.056327,0.5064291 V 8.524662 h 0.179834 c 0.00761,-1.2539972 0.036174,-2.3641968 0.036174,-2.3641968 L 8.1091607,12.250533 H 8.2595391 L 10.5209,6.1770017 v 5.0317343 c 0,0.225213 -0.0188,0.394339 -0.05633,0.506946 -0.03753,0.112609 -0.112702,0.187779 -0.225309,0.225309 -0.106351,0.03753 -0.2658225,0.06242 -0.4785235,0.07493 v 0.187585 c 0.1313743,-0.01247 0.3035465,-0.0186 0.5162475,-0.0186 0.212701,-0.0063 0.440732,-0.0093 0.684713,-0.0093 0.218957,0 0.434805,0.003 0.647505,0.0093 0.218958,0 0.400784,0.0061 0.54467,0.0186 v -0.187585 c -0.212701,-0.01251 -0.375735,-0.0374 -0.488342,-0.07493 -0.106353,-0.03754 -0.177961,-0.112702 -0.215491,-0.225309 -0.03753,-0.112607 -0.05633,-0.281733 -0.05633,-0.506946 V 6.5542397 c 0,-0.2314691 0.0188,-0.4000785 0.05633,-0.5064291 0.03754,-0.1126068 0.10914,-0.1877743 0.215491,-0.2253092 0.112607,-0.043794 0.275641,-0.068681 0.488342,-0.074931 V 5.5599851 c -0.143886,0.00626 -0.325712,0.012354 -0.54467,0.018604 -0.2127,0.00625 -0.428548,0.0093 -0.647505,0.0093 H 10.736907 10.5209 L 8.5024183,10.996346 6.4389784,5.5599851 c -0.1000947,0.00626 -0.2250288,0.012354 -0.3751709,0.018604 -0.1438862,0.00625 -0.285083,0.0093 -0.4227132,0.0093 -0.156398,0 -0.3158699,-0.00305 -0.4785238,-0.0093 -0.1563979,-0.00626 -0.2874237,-0.012353 -0.3937744,-0.018604 z m 0.7596435,5.5340289 v 0.02119 c 0,0.225212 -0.018792,0.403476 -0.056327,0.534851 -0.037535,0.125119 -0.1121859,0.215518 -0.2247924,0.271818 -0.1063506,0.05005 -0.2658222,0.08154 -0.4785238,0.09405 v 0.187585 c 0.1063507,-0.01247 0.2373765,-0.0186 0.3937744,-0.0186 0.1626539,-0.0063 0.3221258,-0.0093 0.4785238,-0.0093 0.1626539,0 0.3348258,0.003 0.5162475,0.0093 0.1814217,0 0.3287102,0.0061 0.4413168,0.0186 v -0.187585 c -0.2439809,-0.01251 -0.428853,-0.044 -0.5539714,-0.09405 -0.1188626,-0.0563 -0.2001218,-0.146699 -0.2439128,-0.271818 -0.037535,-0.131375 -0.046927,-0.355819 -0.056327,-0.534851 -3.589e-4,-0.0068 -6.805e-4,-0.01429 -0.00103,-0.02119 z"
       style="font-size:9.38389px;font-family:'Playfair Display';-inkscape-font-specification:'Playfair Display';display:inline;opacity:1;fill:#64829b;fill-opacity:1;stroke-width:1.00012" /></g><g
     id="g1024"
     transform="matrix(0.99999636,0,0,1,-1.979012,-3.0169877)"
     style="display:none"><circle
       style="display:none;fill:none;fill-opacity:1;stroke:#64829b;stroke-width:0.132292;stroke-dasharray:none;stroke-opacity:1"
       id="circle1020"
       transform="scale(1,-1)"
       cy="-8.9899435"
       cx="8.5796099"
       r="6.4345393" /><path
       id="path1022"
       d="m 4.7687961,5.0308184 v 0.1875855 c 0.2127013,0.00626 0.3721732,0.031139 0.4785238,0.074931 0.1126065,0.037535 0.1872571,0.1127026 0.2247924,0.2253092 0.037535,0.1063506 0.056327,0.27496 0.056327,0.5064291 v 1.9704221 h 0.179834 c 0.00761,-1.2539972 0.036174,-2.3641968 0.036174,-2.3641968 L 8.1091607,11.721366 H 8.2595391 L 10.5209,5.647835 v 5.031734 c 0,0.225213 -0.0188,0.394339 -0.05633,0.506946 -0.03753,0.112609 -0.112702,0.187779 -0.225309,0.225309 -0.106351,0.03753 -0.2658225,0.06242 -0.4785235,0.07493 v 0.187585 c 0.1313743,-0.01247 0.3035465,-0.0186 0.5162475,-0.0186 0.212701,-0.0063 0.440732,-0.0093 0.684713,-0.0093 0.218957,0 0.434805,0.003 0.647505,0.0093 0.218958,0 0.400784,0.0061 0.54467,0.0186 v -0.187585 c -0.212701,-0.01251 -0.375735,-0.0374 -0.488342,-0.07493 -0.106353,-0.03754 -0.177961,-0.112702 -0.215491,-0.225309 -0.03753,-0.112607 -0.05633,-0.281733 -0.05633,-0.506946 V 6.025073 c 0,-0.2314691 0.0188,-0.4000785 0.05633,-0.5064291 0.03754,-0.1126068 0.10914,-0.1877743 0.215491,-0.2253092 0.112607,-0.043794 0.275641,-0.068681 0.488342,-0.074931 V 5.0308184 c -0.143886,0.00626 -0.325712,0.012354 -0.54467,0.018604 -0.2127,0.00625 -0.428548,0.0093 -0.647505,0.0093 H 10.736907 10.5209 L 8.5024183,10.467179 6.4389784,5.0308184 c -0.1000947,0.00626 -0.2250288,0.012354 -0.3751709,0.018604 -0.1438862,0.00625 -0.285083,0.0093 -0.4227132,0.0093 -0.156398,0 -0.3158699,-0.00305 -0.4785238,-0.0093 -0.1563979,-0.00626 -0.2874237,-0.012353 -0.3937744,-0.018604 z m 0.7596435,5.5340286 v 0.02119 c 0,0.225212 -0.018792,0.403476 -0.056327,0.534851 -0.037535,0.125119 -0.1121859,0.215518 -0.2247924,0.271818 -0.1063506,0.05005 -0.2658222,0.08154 -0.4785238,0.09405 v 0.187585 c 0.1063507,-0.01247 0.2373765,-0.0186 0.3937744,-0.0186 0.1626539,-0.0063 0.3221258,-0.0093 0.4785238,-0.0093 0.1626539,0 0.3348258,0.003 0.5162475,0.0093 0.1814217,0 0.3287102,0.0061 0.4413168,0.0186 v -0.187585 c -0.2439809,-0.01251 -0.428853,-0.044 -0.5539714,-0.09405 -0.1188626,-0.0563 -0.2001218,-0.146699 -0.2439128,-0.271818 -0.037535,-0.131375 -0.046927,-0.355819 -0.056327,-0.534851 -3.589e-4,-0.0068 -6.805e-4,-0.01429 -0.00103,-0.02119 z"
       style="font-size:9.38389px;font-family:'Playfair Display';-inkscape-font-specification:'Playfair Display';display:inline;opacity:1;fill:#64829b;fill-opacity:1;stroke-width:1.00012" /><text
       xml:space="preserve"
       id="text300"
       style="font-size:2.66667px;line-height:1.2;font-family:'Work Sans';-inkscape-font-specification:'Work Sans';letter-spacing:0.500003px;white-space:pre;shape-inside:url(#rect302);display:none;opacity:1;fill:#64829b;fill-opacity:1;stroke:#64829b;stroke-width:0.5"
       x="18.255014"
       y="0"
       transform="matrix(0.26458115,0,0,0.26458333,3.2864991,11.692761)" /><text
       xml:space="preserve"
       id="text44602"
       style="font-size:2.66667px;line-height:1.2;font-family:'Work Sans';-inkscape-font-specification:'Work Sans';letter-spacing:0.500003px;white-space:pre;shape-inside:url(#rect44604);display:inline;opacity:1;fill:#64829b;fill-opacity:1;stroke:#64829b;stroke-width:0.5"
       x="18.255014"
       y="0"
       transform="matrix(0.26458296,0,0,0.26458333,2.0131577,11.626616)"><tspan
         x="12.482595"
         y="8.6543228"
         id="tspan3"><tspan
           style="font-size:5.00003px;text-align:center;text-anchor:middle"
           id="tspan1">MEYNDE</tspan><tspan
           style="font-family:'Playfair Display';-inkscape-font-specification:'Playfair Display';text-align:center;text-anchor:middle;stroke:none"
           id="tspan2">
</tspan></tspan><tspan
         x="14.779248"
         y="13.794585"
         id="tspan5"><tspan
           style="font-size:4.00002px;text-align:center;text-anchor:middle"
           id="tspan4">CENTRO </tspan></tspan><tspan
         x="4.4511719"
         y="18.978142"
         id="tspan7"><tspan
           dx="0 3.451189 2.5273566 3.0800939 1.1796931 2.7929831"
           style="font-size:4.00002px;text-align:center;text-anchor:middle"
           id="tspan6">MÉDICO</tspan></tspan></text></g><g
     id="g44119"
     transform="matrix(0.99999636,0,0,1,-1.979012,-3.0169877)"
     style="display:none"><circle
       style="display:none;fill:none;fill-opacity:1;stroke:#64829b;stroke-width:0.132292;stroke-dasharray:none;stroke-opacity:1"
       id="circle44107"
       transform="scale(1,-1)"
       cy="-8.9899435"
       cx="8.5796099"
       r="6.4345393" /><rect
       style="display:inline;opacity:1;fill:#ffffff;fill-opacity:1;stroke:none;stroke-width:0.132292;stroke-opacity:1"
       id="rect44592"
       width="18.223244"
       height="15.908072"
       x="-0.69989681"
       y="1.6609983" /><path
       id="path44109"
       d="m 4.7687961,5.0308184 v 0.1875855 c 0.2127013,0.00626 0.3721732,0.031139 0.4785238,0.074931 0.1126065,0.037535 0.1872571,0.1127026 0.2247924,0.2253092 0.037535,0.1063506 0.056327,0.27496 0.056327,0.5064291 v 1.9704221 h 0.179834 c 0.00761,-1.2539972 0.036174,-2.3641968 0.036174,-2.3641968 L 8.1091607,11.721366 H 8.2595391 L 10.5209,5.647835 v 5.031734 c 0,0.225213 -0.0188,0.394339 -0.05633,0.506946 -0.03753,0.112609 -0.112702,0.187779 -0.225309,0.225309 -0.106351,0.03753 -0.2658225,0.06242 -0.4785235,0.07493 v 0.187585 c 0.1313743,-0.01247 0.3035465,-0.0186 0.5162475,-0.0186 0.212701,-0.0063 0.440732,-0.0093 0.684713,-0.0093 0.218957,0 0.434805,0.003 0.647505,0.0093 0.218958,0 0.400784,0.0061 0.54467,0.0186 v -0.187585 c -0.212701,-0.01251 -0.375735,-0.0374 -0.488342,-0.07493 -0.106353,-0.03754 -0.177961,-0.112702 -0.215491,-0.225309 -0.03753,-0.112607 -0.05633,-0.281733 -0.05633,-0.506946 V 6.025073 c 0,-0.2314691 0.0188,-0.4000785 0.05633,-0.5064291 0.03754,-0.1126068 0.10914,-0.1877743 0.215491,-0.2253092 0.112607,-0.043794 0.275641,-0.068681 0.488342,-0.074931 V 5.0308184 c -0.143886,0.00626 -0.325712,0.012354 -0.54467,0.018604 -0.2127,0.00625 -0.428548,0.0093 -0.647505,0.0093 H 10.736907 10.5209 L 8.5024183,10.467179 6.4389784,5.0308184 c -0.1000947,0.00626 -0.2250288,0.012354 -0.3751709,0.018604 -0.1438862,0.00625 -0.285083,0.0093 -0.4227132,0.0093 -0.156398,0 -0.3158699,-0.00305 -0.4785238,-0.0093 -0.1563979,-0.00626 -0.2874237,-0.012353 -0.3937744,-0.018604 z m 0.7596435,5.5340286 v 0.02119 c 0,0.225212 -0.018792,0.403476 -0.056327,0.534851 -0.037535,0.125119 -0.1121859,0.215518 -0.2247924,0.271818 -0.1063506,0.05005 -0.2658222,0.08154 -0.4785238,0.09405 v 0.187585 c 0.1063507,-0.01247 0.2373765,-0.0186 0.3937744,-0.0186 0.1626539,-0.0063 0.3221258,-0.0093 0.4785238,-0.0093 0.1626539,0 0.3348258,0.003 0.5162475,0.0093 0.1814217,0 0.3287102,0.0061 0.4413168,0.0186 v -0.187585 c -0.2439809,-0.01251 -0.428853,-0.044 -0.5539714,-0.09405 -0.1188626,-0.0563 -0.2001218,-0.146699 -0.2439128,-0.271818 -0.037535,-0.131375 -0.046927,-0.355819 -0.056327,-0.534851 -3.589e-4,-0.0068 -6.805e-4,-0.01429 -0.00103,-0.02119 z"
       style="font-size:9.38389px;font-family:'Playfair Display';-inkscape-font-specification:'Playfair Display';display:inline;opacity:1;fill:#64829b;fill-opacity:1;stroke-width:1.00012" /><g
       aria-label="MEYNDE CENTRO MÉDICO"
       transform="matrix(0.26458115,0,0,0.26458333,3.2864991,11.692761)"
       id="text44117"
       style="font-size:2.66667px;line-height:1.2;font-family:'Work Sans';-inkscape-font-specification:'Work Sans';letter-spacing:0.500003px;white-space:pre;shape-inside:url(#rect44121);opacity:1;fill:#64829b;stroke-width:0.5"><path
         d="m 14.035092,5.0684291 v 0.07 q -0.119,0.0035 -0.182,0.028 -0.0595,0.021 -0.0805,0.084 -0.021,0.0595 -0.021,0.189 v 1.736 q 0,0.126 0.021,0.189 0.021,0.063 0.0805,0.084 0.063,0.021 0.182,0.028 v 0.07 q -0.0805,-0.007 -0.203,-0.007 -0.119,-0.0035 -0.2415,-0.0035 -0.1365,0 -0.2555,0.0035 -0.119,0 -0.1925,0.007 v -0.07 q 0.119,-0.007 0.1785,-0.028 0.063,-0.021 0.084,-0.084 0.021,-0.063 0.021,-0.189 v -1.925 l 0.014,0.0105 -0.8575,2.303 h -0.056 l -0.882,-2.2715 v 1.848 q 0,0.126 0.021,0.1995 0.0245,0.07 0.091,0.1015 0.07,0.028 0.2065,0.035 v 0.07 q -0.063,-0.007 -0.1645,-0.007 -0.1015,-0.0035 -0.1925,-0.0035 -0.0875,0 -0.1785,0.0035 -0.0875,0 -0.147,0.007 v -0.07 q 0.119,-0.007 0.1785,-0.035 0.063,-0.0315 0.084,-0.1015 0.021,-0.0735 0.021,-0.1995 v -1.701 q 0,-0.1295 -0.021,-0.189 -0.021,-0.063 -0.084,-0.084 -0.0595,-0.0245 -0.1785,-0.028 v -0.07 q 0.0595,0.0035 0.147,0.007 0.091,0.0035 0.1785,0.0035 0.077,0 0.1575,-0.0035 0.084,-0.0035 0.14,-0.007 l 0.7945,2.093 -0.0595,0.028 0.7875,-2.1105 q 0.042,0 0.0805,0 0.042,0 0.084,0 0.1225,0 0.2415,-0.0035 0.1225,-0.0035 0.203,-0.007 z"
         style="font-size:3.5px;text-align:center;text-anchor:middle"
         id="path44301" /><path
         d="m 16.575596,5.0684291 q -0.014,0.1225 -0.021,0.238 -0.0035,0.1155 -0.0035,0.175 0,0.063 0.0035,0.1225 0.0035,0.056 0.007,0.0945 h -0.0805 q -0.021,-0.2065 -0.0595,-0.3255 -0.0385,-0.1225 -0.133,-0.1715 -0.091,-0.0525 -0.2765,-0.0525 h -0.2905 q -0.119,0 -0.182,0.021 -0.0595,0.0175 -0.0805,0.0805 -0.021,0.0595 -0.021,0.189 v 1.736 q 0,0.126 0.021,0.189 0.021,0.063 0.0805,0.084 0.063,0.0175 0.182,0.0175 h 0.2555 q 0.2205,0 0.3325,-0.0595 0.1155,-0.0595 0.1645,-0.1925 0.0525,-0.1365 0.077,-0.3675 h 0.0805 q -0.0105,0.0945 -0.0105,0.252 0,0.0665 0.0035,0.1925 0.007,0.1225 0.021,0.2555 -0.1785,-0.007 -0.4025,-0.007 -0.224,-0.0035 -0.399,-0.0035 -0.077,0 -0.1995,0 -0.119,0 -0.259,0.0035 -0.14,0 -0.2835,0.0035 -0.1435,0 -0.273,0.0035 v -0.07 q 0.119,-0.007 0.1785,-0.028 0.063,-0.021 0.084,-0.084 0.021,-0.063 0.021,-0.189 v -1.736 q 0,-0.1295 -0.021,-0.189 -0.021,-0.063 -0.084,-0.084 -0.0595,-0.0245 -0.1785,-0.028 v -0.07 q 0.1295,0.0035 0.273,0.007 0.1435,0 0.2835,0.0035 0.14,0 0.259,0 0.1225,0 0.1995,0 0.161,0 0.364,0 0.2065,-0.0035 0.3675,-0.0105 z m -0.602,1.197 q 0,0 0,0.035 0,0.035 0,0.035 h -0.6405 q 0,0 0,-0.035 0,-0.035 0,-0.035 z m 0.1015,-0.462 q -0.014,0.1995 -0.014,0.3045 0.0035,0.105 0.0035,0.1925 0,0.0875 0.0035,0.1925 0.0035,0.105 0.0175,0.3045 h -0.0805 q -0.014,-0.112 -0.035,-0.217 -0.0175,-0.1085 -0.084,-0.175 -0.063,-0.07 -0.217,-0.07 v -0.07 q 0.1155,0 0.175,-0.0455 0.063,-0.049 0.091,-0.1225 0.028,-0.0735 0.0385,-0.1505 0.0105,-0.0805 0.021,-0.1435 z"
         style="font-size:3.5px;text-align:center;text-anchor:middle"
         id="path44303" /><path
         d="m 19.371596,5.0684291 v 0.07 q -0.0665,0.014 -0.133,0.0875 -0.0665,0.07 -0.147,0.224 l -0.707,1.4 h -0.0595 l -0.819,-1.512 q -0.07,-0.1295 -0.119,-0.161 -0.0455,-0.035 -0.084,-0.035 v -0.0735 q 0.07,0.0035 0.1435,0.007 0.077,0.0035 0.1645,0.0035 0.1155,0 0.245,0 0.133,-0.0035 0.245,-0.0105 v 0.0735 q -0.0875,0 -0.154,0.021 -0.0665,0.021 -0.0875,0.077 -0.021,0.056 0.0315,0.1575 l 0.5915,1.134 -0.028,0.021 0.4655,-0.9275 q 0.098,-0.1925 0.0945,-0.2975 0,-0.105 -0.0805,-0.1435 -0.0805,-0.042 -0.2275,-0.0455 v -0.07 q 0.1015,0.0035 0.2065,0.007 0.105,0.0035 0.196,0.0035 0.091,0 0.1505,-0.0035 0.0595,-0.0035 0.112,-0.007 z m -0.8295,1.414 v 0.693 q 0,0.126 0.021,0.189 0.021,0.063 0.0805,0.084 0.063,0.021 0.182,0.028 v 0.07 q -0.0805,-0.007 -0.203,-0.007 -0.119,-0.0035 -0.2415,-0.0035 -0.1365,0 -0.2555,0.0035 -0.119,0 -0.1925,0.007 v -0.07 q 0.119,-0.007 0.1785,-0.028 0.063,-0.021 0.084,-0.084 0.021,-0.063 0.021,-0.189 v -0.7175 l 0.189,0.217 z"
         style="font-size:3.5px;text-align:center;text-anchor:middle"
         id="path44305" /><path
         d="m 22.227098,5.0684291 v 0.07 q -0.119,0.0035 -0.182,0.035 -0.0595,0.0315 -0.0805,0.1015 -0.021,0.07 -0.021,0.1995 v 2.0895 q -0.021,0 -0.042,0 -0.0175,0 -0.0385,0 l -1.47,-2.2715 v 1.848 q 0,0.126 0.021,0.1995 0.0245,0.07 0.091,0.1015 0.07,0.028 0.2065,0.035 v 0.07 q -0.063,-0.007 -0.1645,-0.007 -0.1015,-0.0035 -0.1925,-0.0035 -0.0875,0 -0.1785,0.0035 -0.0875,0 -0.147,0.007 v -0.07 q 0.119,-0.007 0.1785,-0.035 0.063,-0.0315 0.084,-0.1015 0.021,-0.0735 0.021,-0.1995 v -1.701 q 0,-0.1295 -0.021,-0.189 -0.021,-0.063 -0.084,-0.084 -0.0595,-0.0245 -0.1785,-0.028 v -0.07 q 0.0595,0.0035 0.147,0.007 0.091,0.0035 0.1785,0.0035 0.077,0 0.147,-0.0035 0.07,-0.0035 0.126,-0.007 l 1.2355,1.904 v -1.498 q 0,-0.1295 -0.0245,-0.1995 -0.021,-0.07 -0.091,-0.1015 -0.0665,-0.0315 -0.203,-0.035 v -0.07 q 0.063,0.0035 0.1645,0.007 0.105,0.0035 0.1925,0.0035 0.091,0 0.1785,-0.0035 0.091,-0.0035 0.147,-0.007 z"
         style="font-size:3.5px;text-align:center;text-anchor:middle"
         id="path44307" /><path
         d="m 23.9556,5.0684291 q 0.6265,0 0.931,0.315 0.3045,0.3115 0.3045,0.896 0,0.3815 -0.1505,0.6685 -0.147,0.2835 -0.4305,0.441 -0.2835,0.1575 -0.686,0.1575 -0.0525,0 -0.14,-0.0035 -0.0875,-0.0035 -0.182,-0.0035 -0.091,-0.0035 -0.168,-0.0035 -0.1225,0 -0.2415,0.0035 -0.119,0 -0.1925,0.007 v -0.07 q 0.119,-0.007 0.1785,-0.028 0.063,-0.021 0.084,-0.084 0.021,-0.063 0.021,-0.189 v -1.736 q 0,-0.1295 -0.021,-0.189 -0.021,-0.063 -0.084,-0.084 -0.0595,-0.0245 -0.1785,-0.028 v -0.07 q 0.0735,0.0035 0.1925,0.0105 0.119,0.0035 0.2345,0 0.1225,-0.0035 0.2765,-0.007 0.154,-0.0035 0.252,-0.0035 z m -0.0875,0.063 q -0.161,0 -0.21,0.0595 -0.049,0.0595 -0.049,0.2415 v 1.75 q 0,0.182 0.049,0.2415 0.0525,0.0595 0.2135,0.0595 0.3815,0 0.5915,-0.1365 0.21,-0.14 0.294,-0.406 0.084,-0.266 0.084,-0.6475 0,-0.392 -0.0945,-0.6475 -0.091,-0.259 -0.3045,-0.385 -0.21,-0.1295 -0.574,-0.1295 z"
         style="font-size:3.5px;text-align:center;text-anchor:middle"
         id="path44309" /><path
         d="m 27.745598,5.0684291 q -0.014,0.1225 -0.021,0.238 -0.0035,0.1155 -0.0035,0.175 0,0.063 0.0035,0.1225 0.0035,0.056 0.007,0.0945 h -0.0805 q -0.021,-0.2065 -0.0595,-0.3255 -0.0385,-0.1225 -0.133,-0.1715 -0.091,-0.0525 -0.2765,-0.0525 h -0.2905 q -0.119,0 -0.182,0.021 -0.0595,0.0175 -0.0805,0.0805 -0.021,0.0595 -0.021,0.189 v 1.736 q 0,0.126 0.021,0.189 0.021,0.063 0.0805,0.084 0.063,0.0175 0.182,0.0175 h 0.2555 q 0.2205,0 0.3325,-0.0595 0.1155,-0.0595 0.1645,-0.1925 0.0525,-0.1365 0.077,-0.3675 h 0.0805 q -0.0105,0.0945 -0.0105,0.252 0,0.0665 0.0035,0.1925 0.007,0.1225 0.021,0.2555 -0.1785,-0.007 -0.4025,-0.007 -0.224,-0.0035 -0.399,-0.0035 -0.077,0 -0.1995,0 -0.119,0 -0.259,0.0035 -0.14,0 -0.2835,0.0035 -0.1435,0 -0.273,0.0035 v -0.07 q 0.119,-0.007 0.1785,-0.028 0.063,-0.021 0.084,-0.084 0.021,-0.063 0.021,-0.189 v -1.736 q 0,-0.1295 -0.021,-0.189 -0.021,-0.063 -0.084,-0.084 -0.0595,-0.0245 -0.1785,-0.028 v -0.07 q 0.1295,0.0035 0.273,0.007 0.1435,0 0.2835,0.0035 0.14,0 0.259,0 0.1225,0 0.1995,0 0.161,0 0.364,0 0.2065,-0.0035 0.3675,-0.0105 z m -0.602,1.197 q 0,0 0,0.035 0,0.035 0,0.035 h -0.6405 q 0,0 0,-0.035 0,-0.035 0,-0.035 z m 0.1015,-0.462 q -0.014,0.1995 -0.014,0.3045 0.0035,0.105 0.0035,0.1925 0,0.0875 0.0035,0.1925 0.0035,0.105 0.0175,0.3045 h -0.0805 q -0.014,-0.112 -0.035,-0.217 -0.0175,-0.1085 -0.084,-0.175 -0.063,-0.07 -0.217,-0.07 v -0.07 q 0.1155,0 0.175,-0.0455 0.063,-0.049 0.091,-0.1225 0.028,-0.0735 0.0385,-0.1505 0.0105,-0.0805 0.021,-0.1435 z"
         style="font-size:3.5px;text-align:center;text-anchor:middle"
         id="path44311" /><path
         d="m 6.6180838,9.0600832 q 0.1755613,0 0.2872821,0.0532 0.1143809,0.05054 0.2021616,0.1197009 0.0532,0.0399 0.079801,0.01064 0.02926,-0.03192 0.0399,-0.1463011 h 0.06118 q -0.00532,0.098421 -0.00798,0.2394018 -0.00266,0.140981 -0.00266,0.3724028 h -0.06118 q -0.01862,-0.1143809 -0.03458,-0.1808814 -0.01596,-0.069161 -0.0399,-0.1170409 -0.02128,-0.04788 -0.05852,-0.095761 -0.082461,-0.1090608 -0.2074816,-0.1569412 -0.1250209,-0.05054 -0.263342,-0.05054 -0.130341,0 -0.2367418,0.066501 -0.1037407,0.06384 -0.1808813,0.1862014 -0.074481,0.122361 -0.1170409,0.2952623 -0.0399,0.1729013 -0.0399,0.3883632 0,0.223441 0.04522,0.396343 0.04522,0.170241 0.125021,0.287282 0.082461,0.117041 0.1915214,0.178221 0.1117209,0.05852 0.2394018,0.05852 0.1197009,0 0.2500419,-0.04788 0.130341,-0.04788 0.2048216,-0.154281 0.05852,-0.07714 0.079801,-0.167581 0.02394,-0.09044 0.04256,-0.252702 h 0.06118 q 0,0.242062 0.00266,0.391023 0.00266,0.146301 0.00798,0.247382 h -0.06118 q -0.01064,-0.114381 -0.03724,-0.143641 -0.02394,-0.02926 -0.082461,0.008 -0.098421,0.06916 -0.2101416,0.122361 -0.1090608,0.05054 -0.2819621,0.05054 -0.252702,0 -0.4442234,-0.114381 Q 5.982339,10.789096 5.8759382,10.573635 5.7721974,10.358173 5.7721974,10.054931 q 0,-0.2979226 0.1090608,-0.5213642 Q 5.990319,9.3101251 6.1791805,9.1851041 6.3707019,9.0600832 6.6180838,9.0600832 Z"
         style="font-size:2.66002px;text-align:center;text-anchor:middle"
         id="path44313" /><path
         d="m 9.4003834,9.0973235 q -0.01064,0.093101 -0.01596,0.1808813 -0.00266,0.087781 -0.00266,0.133001 0,0.04788 0.00266,0.093101 0.00266,0.04256 0.00532,0.071821 h -0.061181 q -0.01596,-0.1569412 -0.04522,-0.2473819 -0.02926,-0.093101 -0.1010807,-0.130341 -0.06916,-0.0399 -0.2101416,-0.0399 H 8.7513385 q -0.090441,0 -0.138321,0.01596 -0.04522,0.0133 -0.06118,0.06118 -0.01596,0.04522 -0.01596,0.1436411 v 1.31937 q 0,0.09576 0.01596,0.143641 0.01596,0.04788 0.06118,0.06384 0.04788,0.0133 0.138321,0.0133 H 8.94552 q 0.1675813,0 0.2527019,-0.04522 0.087781,-0.04522 0.125021,-0.146301 0.0399,-0.103741 0.05852,-0.279302 h 0.061181 q -0.00798,0.07182 -0.00798,0.191521 0,0.05054 0.00266,0.146301 0.00532,0.0931 0.01596,0.194182 -0.135661,-0.0053 -0.3059023,-0.0053 -0.1702413,-0.0027 -0.3032423,-0.0027 -0.05852,0 -0.1516211,0 -0.090441,0 -0.1968415,0.0027 -0.1064008,0 -0.2154616,0.0027 -0.1090609,0 -0.2074816,0.0027 v -0.0532 q 0.090441,-0.0053 0.135661,-0.02128 0.04788,-0.01596 0.06384,-0.06384 0.01596,-0.04788 0.01596,-0.143641 V 9.3792856 q 0,-0.098421 -0.01596,-0.1436411 -0.01596,-0.04788 -0.06384,-0.06384 -0.04522,-0.01862 -0.135661,-0.02128 v -0.0532 q 0.098421,0.00266 0.2074816,0.00532 0.1090608,0 0.2154616,0.00266 0.1064008,0 0.1968415,0 0.093101,0 0.1516211,0 0.122361,0 0.2766421,0 0.1569412,-0.00266 0.2793021,-0.00798 z M 8.94286,10.00705 q 0,0 0,0.0266 0,0.0266 0,0.0266 H 8.4560763 q 0,0 0,-0.0266 0,-0.0266 0,-0.0266 z M 9.020001,9.6559277 q -0.01064,0.1516211 -0.01064,0.2314217 0.00266,0.079801 0.00266,0.1463016 0,0.0665 0.00266,0.146301 0.00266,0.0798 0.0133,0.231421 h -0.06118 q -0.01064,-0.08512 -0.0266,-0.164921 -0.0133,-0.08246 -0.063841,-0.133001 -0.04788,-0.0532 -0.1649213,-0.0532 v -0.0532 q 0.087781,0 0.133001,-0.03458 0.04788,-0.03724 0.069161,-0.093101 0.02128,-0.05586 0.02926,-0.1143809 0.00798,-0.06118 0.01596,-0.1090608 z"
         style="font-size:2.66002px;text-align:center;text-anchor:middle"
         id="path44315" /><path
         d="m 11.863479,9.0973235 v 0.0532 q -0.09044,0.00266 -0.138321,0.0266 -0.04522,0.02394 -0.06118,0.077141 -0.01596,0.0532 -0.01596,0.1516212 v 1.5880323 q -0.01596,0 -0.03192,0 -0.0133,0 -0.02926,0 L 10.469629,9.2675647 v 1.4044903 q 0,0.09576 0.01596,0.151622 0.01862,0.0532 0.06916,0.07714 0.0532,0.02128 0.156941,0.0266 v 0.0532 q -0.04788,-0.0053 -0.12502,-0.0053 -0.07714,-0.0027 -0.146302,-0.0027 -0.0665,0 -0.135661,0.0027 -0.0665,0 -0.11172,0.0053 v -0.0532 q 0.09044,-0.0053 0.135661,-0.0266 0.04788,-0.02394 0.06384,-0.07714 0.01596,-0.05586 0.01596,-0.151622 V 9.3792856 q 0,-0.098421 -0.01596,-0.1436411 -0.01596,-0.04788 -0.06384,-0.06384 -0.04522,-0.01862 -0.135661,-0.02128 v -0.0532 q 0.04522,0.00266 0.11172,0.00532 0.06916,0.00266 0.135661,0.00266 0.05852,0 0.111721,-0.00266 0.0532,-0.00266 0.09576,-0.00532 l 0.938987,1.4470505 V 9.4058858 q 0,-0.098421 -0.01862,-0.1516212 -0.01596,-0.0532 -0.06916,-0.077141 -0.05054,-0.02394 -0.154281,-0.0266 v -0.0532 q 0.04788,0.00266 0.125021,0.00532 0.0798,0.00266 0.146301,0.00266 0.06916,0 0.135661,-0.00266 0.06916,-0.00266 0.111721,-0.00532 z"
         style="font-size:2.66002px;text-align:center;text-anchor:middle"
         id="path44317" /><path
         d="m 14.033973,9.0973235 q -0.01064,0.1010807 -0.01596,0.1968414 -0.0027,0.093101 -0.0027,0.1436411 0,0.06384 0.0027,0.1197009 0.0027,0.05586 0.0053,0.098421 h -0.06118 q -0.01862,-0.1862014 -0.05054,-0.2926022 -0.03192,-0.1090609 -0.111721,-0.1569412 -0.0798,-0.04788 -0.247382,-0.04788 h -0.143641 v 1.5135515 q 0,0.106401 0.01862,0.159602 0.02128,0.0532 0.0798,0.07182 0.05852,0.01862 0.170241,0.02394 v 0.0532 q -0.06916,-0.0053 -0.175561,-0.0053 -0.106401,-0.0027 -0.215462,-0.0027 -0.1197,0 -0.226101,0.0027 -0.103741,0 -0.167582,0.0053 v -0.0532 q 0.111721,-0.0053 0.170242,-0.02394 0.05852,-0.01862 0.07714,-0.07182 0.02128,-0.0532 0.02128,-0.159602 V 9.1585039 h -0.143641 q -0.164921,0 -0.247381,0.04788 -0.0798,0.04788 -0.111721,0.1569412 -0.03192,0.1064008 -0.05054,0.2926022 h -0.06118 q 0.0053,-0.04256 0.0053,-0.098421 0.0027,-0.05586 0.0027,-0.1197009 0,-0.05054 -0.0053,-0.1436411 -0.0027,-0.095761 -0.0133,-0.1968414 0.111721,0.00266 0.242062,0.00532 0.133001,0.00266 0.266002,0.00266 0.133001,0 0.242061,0 0.109061,0 0.239402,0 0.133001,0 0.266002,-0.00266 0.133001,-0.00266 0.242062,-0.00532 z"
         style="font-size:2.66002px;text-align:center;text-anchor:middle"
         id="path44319" /><path
         d="m 14.722838,9.0973235 q 0.05586,0.00266 0.146302,0.00532 0.09044,0.00266 0.178221,0.00266 0.125021,0 0.239402,-0.00266 0.114381,-0.00266 0.162261,-0.00266 0.215462,0 0.356443,0.06118 0.143641,0.061181 0.212801,0.1675813 0.07182,0.1037408 0.07182,0.2340818 0,0.079801 -0.03192,0.1702413 -0.03192,0.090441 -0.111721,0.1702413 -0.07714,0.079801 -0.212802,0.1330018 -0.135661,0.05054 -0.343142,0.05054 h -0.255362 v -0.0532 h 0.228761 q 0.188862,0 0.287282,-0.058521 0.101081,-0.06118 0.135662,-0.1596012 0.03724,-0.1010808 0.03724,-0.2234417 0,-0.2101416 -0.101081,-0.3245225 -0.09842,-0.1170408 -0.340483,-0.1170408 -0.12236,0 -0.159601,0.04522 -0.03724,0.04522 -0.03724,0.1835414 v 1.3193698 q 0,0.09576 0.01596,0.143641 0.01596,0.04788 0.06118,0.06384 0.04788,0.01596 0.138321,0.02128 v 0.0532 q -0.06118,-0.0053 -0.154282,-0.0053 -0.09044,-0.0027 -0.183541,-0.0027 -0.103741,0 -0.194181,0.0027 -0.09044,0 -0.146302,0.0053 v -0.0532 q 0.09044,-0.0053 0.135661,-0.02128 0.04788,-0.01596 0.06384,-0.06384 0.01596,-0.04788 0.01596,-0.143641 V 9.3792856 q 0,-0.098421 -0.01596,-0.1436411 -0.01596,-0.04788 -0.06384,-0.06384 -0.04522,-0.01862 -0.135661,-0.02128 z m 0.422944,0.9443075 q 0.143641,0.0053 0.226101,0.0133 0.08246,0.0053 0.133001,0.01064 0.0532,0.0053 0.101081,0.0133 0.178221,0.02926 0.255362,0.109061 0.0798,0.07714 0.117041,0.242062 l 0.0665,0.271322 q 0.0266,0.11704 0.0532,0.170241 0.02926,0.05054 0.08778,0.04788 0.04522,-0.0027 0.07448,-0.02926 0.03192,-0.0266 0.0665,-0.07182 l 0.0399,0.02926 q -0.05586,0.08246 -0.117041,0.127681 -0.05852,0.04256 -0.167581,0.04256 -0.09842,0 -0.172902,-0.05852 -0.07448,-0.05852 -0.11172,-0.228762 l -0.05852,-0.266002 q -0.02394,-0.114381 -0.05586,-0.196842 -0.02926,-0.08512 -0.08512,-0.133001 -0.0532,-0.04788 -0.159601,-0.04788 h -0.287282 z"
         style="font-size:2.66002px;text-align:center;text-anchor:middle"
         id="path44321" /><path
         d="m 17.821683,9.0600832 q 0.252702,0 0.441563,0.1143808 0.191522,0.1143809 0.295262,0.3298425 0.106401,0.2128016 0.106401,0.5187035 0,0.297923 -0.109061,0.521364 -0.106401,0.223442 -0.297922,0.348463 -0.191521,0.125021 -0.438903,0.125021 -0.252702,0 -0.444224,-0.114381 -0.188861,-0.114381 -0.295262,-0.329842 -0.103741,-0.215462 -0.103741,-0.518704 0,-0.2979226 0.109061,-0.5213642 0.109061,-0.2234417 0.297922,-0.3484627 0.191522,-0.1250209 0.438904,-0.1250209 z m -0.01064,0.04788 q -0.172902,0 -0.300583,0.1197009 -0.127681,0.1197009 -0.199501,0.3298425 -0.06916,0.2101416 -0.06916,0.4867844 0,0.281962 0.07714,0.492103 0.0798,0.207482 0.212802,0.321863 0.135661,0.111721 0.297922,0.111721 0.172901,0 0.300582,-0.119701 0.127681,-0.119701 0.196842,-0.329843 0.07182,-0.212801 0.07182,-0.486783 0,-0.2846229 -0.0798,-0.4921045 Q 18.241966,9.3340652 18.108965,9.2223444 17.975964,9.1079635 17.811043,9.1079632 Z"
         style="font-size:2.66002px;text-align:center;text-anchor:middle"
         id="path44323" /><path
         d="m 22.673398,9.0973235 v 0.0532 q -0.09044,0.00266 -0.138321,0.02128 -0.04522,0.01596 -0.06118,0.06384 -0.01596,0.04522 -0.01596,0.1436411 v 1.3193704 q 0,0.09576 0.01596,0.143641 0.01596,0.04788 0.06118,0.06384 0.04788,0.01596 0.138321,0.02128 v 0.0532 q -0.06118,-0.0053 -0.154281,-0.0053 -0.09044,-0.0027 -0.183542,-0.0027 -0.103741,0 -0.194181,0.0027 -0.09044,0 -0.146301,0.0053 v -0.0532 q 0.09044,-0.0053 0.135661,-0.02128 0.04788,-0.01596 0.06384,-0.06384 0.01596,-0.04788 0.01596,-0.143641 V 9.2356445 l 0.01064,0.00798 -0.651705,1.7502935 h -0.04256 L 20.856604,9.2675647 v 1.4044903 q 0,0.09576 0.01596,0.151622 0.01862,0.0532 0.06916,0.07714 0.0532,0.02128 0.156941,0.0266 v 0.0532 q -0.04788,-0.0053 -0.125021,-0.0053 -0.07714,-0.0027 -0.146301,-0.0027 -0.0665,0 -0.135661,0.0027 -0.0665,0 -0.111721,0.0053 v -0.0532 q 0.09044,-0.0053 0.135661,-0.0266 0.04788,-0.02394 0.06384,-0.07714 0.01596,-0.05586 0.01596,-0.151622 V 9.3792856 q 0,-0.098421 -0.01596,-0.1436411 -0.01596,-0.04788 -0.06384,-0.06384 -0.04522,-0.01862 -0.135661,-0.02128 v -0.0532 q 0.04522,0.00266 0.111721,0.00532 0.06916,0.00266 0.135661,0.00266 0.05852,0 0.119701,-0.00266 0.06384,-0.00266 0.1064,-0.00532 l 0.603825,1.5906915 -0.04522,0.02128 0.598504,-1.6039925 q 0.03192,0 0.06118,0 0.03192,0 0.06384,0 0.0931,0 0.183542,-0.00266 0.0931,-0.00266 0.154281,-0.00532 z"
         style="font-size:2.66002px;text-align:center;text-anchor:middle"
         id="path44325" /><path
         d="m 24.724193,9.0973235 q -0.01064,0.093101 -0.01596,0.1808813 -0.0027,0.087781 -0.0027,0.133001 0,0.04788 0.0027,0.093101 0.0027,0.04256 0.0053,0.071821 h -0.06118 q -0.01596,-0.1569412 -0.04522,-0.2473819 -0.02926,-0.093101 -0.101081,-0.130341 -0.06916,-0.0399 -0.210141,-0.0399 h -0.220782 q -0.09044,0 -0.138321,0.01596 -0.04522,0.0133 -0.06118,0.06118 -0.01596,0.04522 -0.01596,0.1436411 v 1.31937 q 0,0.09576 0.01596,0.143641 0.01596,0.04788 0.06118,0.06384 0.04788,0.0133 0.138321,0.0133 h 0.194182 q 0.167581,0 0.252702,-0.04522 0.08778,-0.04522 0.12502,-0.146301 0.0399,-0.103741 0.05852,-0.279302 h 0.06118 q -0.008,0.07182 -0.008,0.191521 0,0.05054 0.0027,0.146301 0.0053,0.0931 0.01596,0.194182 -0.135661,-0.0053 -0.305902,-0.0053 -0.170241,-0.0027 -0.303242,-0.0027 -0.05852,0 -0.151621,0 -0.09044,0 -0.196842,0.0027 -0.106401,0 -0.215461,0.0027 -0.109061,0 -0.207482,0.0027 v -0.0532 q 0.09044,-0.0053 0.135661,-0.02128 0.04788,-0.01596 0.06384,-0.06384 0.01596,-0.04788 0.01596,-0.143641 V 9.3792856 q 0,-0.098421 -0.01596,-0.1436411 -0.01596,-0.04788 -0.06384,-0.06384 -0.04522,-0.01862 -0.135661,-0.02128 v -0.0532 q 0.09842,0.00266 0.207482,0.00532 0.10906,0 0.215461,0.00266 0.106401,0 0.196842,0 0.0931,0 0.151621,0 0.122361,0 0.276642,0 0.156941,-0.00266 0.279302,-0.00798 z M 24.26667,10.00705 q 0,0 0,0.0266 0,0.0266 0,0.0266 h -0.486784 q 0,0 0,-0.0266 0,-0.0266 0,-0.0266 z m 0.07714,-0.3511223 q -0.01064,0.1516211 -0.01064,0.2314217 0.0027,0.079801 0.0027,0.1463016 0,0.0665 0.0027,0.146301 0.0027,0.0798 0.0133,0.231421 h -0.06118 q -0.01064,-0.08512 -0.0266,-0.164921 -0.0133,-0.08246 -0.06384,-0.133001 -0.04788,-0.0532 -0.164921,-0.0532 v -0.0532 q 0.08778,0 0.133001,-0.03458 0.04788,-0.03724 0.06916,-0.093101 0.02128,-0.05586 0.02926,-0.1143809 0.008,-0.06118 0.01596,-0.1090608 z m 0.0399,-1.1384886 q 0.0532,-0.03458 0.09576,-0.02394 0.04522,0.00798 0.0665,0.04256 0.02128,0.03458 0.01064,0.077141 -0.01064,0.0399 -0.0665,0.077141 -0.05586,0.03458 -0.130341,0.06384 -0.07182,0.0266 -0.170241,0.066501 -0.09576,0.03724 -0.234082,0.1064008 l -0.01862,-0.03458 q 0.122361,-0.093101 0.199502,-0.1622612 0.0798,-0.071821 0.135661,-0.125021 0.05586,-0.0532 0.11172,-0.087781 z"
         style="font-size:2.66002px;text-align:center;text-anchor:middle"
         id="path44327" /><path
         d="m 26.242982,9.0973235 q 0.476143,0 0.707565,0.2394018 0.231422,0.2367418 0.231422,0.6809647 0,0.289943 -0.114381,0.508064 -0.111721,0.215462 -0.327183,0.335163 -0.215461,0.119701 -0.521364,0.119701 -0.0399,0 -0.1064,-0.0027 -0.0665,-0.0027 -0.138321,-0.0027 -0.06916,-0.0027 -0.127681,-0.0027 -0.0931,0 -0.183542,0.0027 -0.09044,0 -0.146301,0.0053 v -0.0532 q 0.09044,-0.0053 0.135661,-0.02128 0.04788,-0.01596 0.06384,-0.06384 0.01596,-0.04788 0.01596,-0.143641 V 9.3792856 q 0,-0.098421 -0.01596,-0.1436411 -0.01596,-0.04788 -0.06384,-0.06384 -0.04522,-0.01862 -0.135661,-0.02128 v -0.0532 q 0.05586,0.00266 0.146301,0.00798 0.09044,0.00266 0.178222,0 0.0931,-0.00266 0.210141,-0.00532 0.117041,-0.00266 0.191522,-0.00266 z m -0.0665,0.04788 q -0.122361,0 -0.159601,0.04522 -0.03724,0.04522 -0.03724,0.1835413 v 1.3300102 q 0,0.138321 0.03724,0.183541 0.0399,0.04522 0.162261,0.04522 0.289942,0 0.449544,-0.10374 0.159601,-0.106401 0.223441,-0.308563 0.06384,-0.202161 0.06384,-0.492104 0,-0.2979215 -0.07182,-0.4921029 -0.06916,-0.1968415 -0.231422,-0.2926022 -0.159601,-0.098421 -0.436243,-0.09842 z"
         style="font-size:2.66002px;text-align:center;text-anchor:middle"
         id="path44329" /><path
         d="m 28.594355,9.0973235 v 0.0532 q -0.09044,0.00266 -0.138321,0.02128 -0.04522,0.01596 -0.06118,0.06384 -0.01596,0.04522 -0.01596,0.1436411 v 1.3193704 q 0,0.09576 0.01596,0.143641 0.01596,0.04788 0.06118,0.06384 0.04788,0.01596 0.138321,0.02128 v 0.0532 q -0.06118,-0.0053 -0.154281,-0.0053 -0.09044,-0.0027 -0.183541,-0.0027 -0.103741,0 -0.194182,0.0027 -0.09044,0 -0.146301,0.0053 v -0.0532 q 0.09044,-0.0053 0.135661,-0.02128 0.04788,-0.01596 0.06384,-0.06384 0.01596,-0.04788 0.01596,-0.143641 V 9.3792856 q 0,-0.098421 -0.01596,-0.1436411 -0.01596,-0.04788 -0.06384,-0.06384 -0.04522,-0.01862 -0.135661,-0.02128 v -0.0532 q 0.05586,0.00266 0.146301,0.00532 0.09044,0.00266 0.194182,0.00266 0.0931,0 0.183541,-0.00266 0.0931,-0.00266 0.154281,-0.00532 z"
         style="font-size:2.66002px;text-align:center;text-anchor:middle"
         id="path44331" /><path
         d="m 30.171669,9.0600832 q 0.175561,0 0.287282,0.0532 0.114381,0.05054 0.202162,0.1197009 0.0532,0.0399 0.0798,0.01064 0.02926,-0.03192 0.0399,-0.1463011 h 0.06118 q -0.0053,0.098421 -0.008,0.2394018 -0.0027,0.140981 -0.0027,0.3724028 h -0.06118 q -0.01862,-0.1143809 -0.03458,-0.1808814 -0.01596,-0.069161 -0.0399,-0.1170409 -0.02128,-0.04788 -0.05852,-0.095761 -0.08246,-0.1090608 -0.207481,-0.1569412 -0.125021,-0.05054 -0.263342,-0.05054 -0.130341,0 -0.236742,0.066501 -0.103741,0.06384 -0.180881,0.1862014 -0.07448,0.122361 -0.117041,0.2952623 -0.0399,0.1729013 -0.0399,0.3883632 0,0.223441 0.04522,0.396343 0.04522,0.170241 0.125021,0.287282 0.08246,0.117041 0.191521,0.178221 0.111721,0.05852 0.239402,0.05852 0.119701,0 0.250042,-0.04788 0.130341,-0.04788 0.204821,-0.154281 0.05852,-0.07714 0.0798,-0.167581 0.02394,-0.09044 0.04256,-0.252702 h 0.06118 q 0,0.242062 0.0027,0.391023 0.0027,0.146301 0.008,0.247382 h -0.06118 q -0.01064,-0.114381 -0.03724,-0.143641 -0.02394,-0.02926 -0.08246,0.008 -0.09842,0.06916 -0.210142,0.122361 -0.109061,0.05054 -0.281962,0.05054 -0.252702,0 -0.444224,-0.114381 -0.188861,-0.114381 -0.295262,-0.329842 -0.103741,-0.215462 -0.103741,-0.518704 0,-0.2979225 0.109061,-0.5213641 0.109061,-0.2234417 0.297923,-0.3484627 0.191521,-0.1250209 0.438903,-0.1250209 z"
         style="font-size:2.66002px;text-align:center;text-anchor:middle"
         id="path44333" /><path
         d="m 32.501766,9.0600832 q 0.252702,0 0.441563,0.1143808 0.191522,0.1143809 0.295263,0.3298425 0.1064,0.2128016 0.1064,0.5187035 0,0.297923 -0.10906,0.521364 -0.106401,0.223442 -0.297923,0.348463 -0.191521,0.125021 -0.438903,0.125021 -0.252702,0 -0.444223,-0.114381 -0.188862,-0.114381 -0.295263,-0.329842 -0.10374,-0.215462 -0.10374,-0.518704 0,-0.2979226 0.10906,-0.5213642 0.109061,-0.2234417 0.297923,-0.3484627 0.191521,-0.1250209 0.438903,-0.1250209 z m -0.01064,0.04788 q -0.172901,0 -0.300582,0.1197009 -0.127681,0.1197009 -0.199502,0.3298425 -0.06916,0.2101416 -0.06916,0.4867844 0,0.281962 0.07714,0.492103 0.0798,0.207482 0.212802,0.321863 0.135661,0.111721 0.297922,0.111721 0.172901,0 0.300582,-0.119701 0.127681,-0.119701 0.196842,-0.329843 0.07182,-0.212801 0.07182,-0.486783 0,-0.2846229 -0.0798,-0.4921045 Q 32.922049,9.3340652 32.789048,9.2223444 32.656047,9.1079635 32.491126,9.1079632 Z"
         style="font-size:2.66002px;text-align:center;text-anchor:middle"
         id="path44335" /></g></g></svg>
