<?xml version="1.0" encoding="UTF-8" standalone="no"?>
<!-- Created with Inkscape (http://www.inkscape.org/) -->

<svg
   width="49.139042"
   height="49.139042"
   viewBox="0 0 13.001372 13.001372"
   version="1.1"
   id="svg2346"
   xml:space="preserve"
   sodipodi:docname="meynde_logo21.svg"
   inkscape:export-filename="meynde_logo.svg"
   inkscape:export-xdpi="96"
   inkscape:export-ydpi="96"
   inkscape:version="1.2.2 (732a01da63, 2022-12-09)"
   xmlns:inkscape="http://www.inkscape.org/namespaces/inkscape"
   xmlns:sodipodi="http://sodipodi.sourceforge.net/DTD/sodipodi-0.dtd"
   xmlns="http://www.w3.org/2000/svg"
   xmlns:svg="http://www.w3.org/2000/svg"><sodipodi:namedview
     id="namedview10"
     pagecolor="#ffffff"
     bordercolor="#000000"
     borderopacity="0.25"
     inkscape:showpageshadow="2"
     inkscape:pageopacity="0.0"
     inkscape:pagecheckerboard="0"
     inkscape:deskcolor="#d1d1d1"
     showgrid="false"
     inkscape:zoom="10.333333"
     inkscape:cx="28.790323"
     inkscape:cy="26.032258"
     inkscape:window-width="1920"
     inkscape:window-height="1009"
     inkscape:window-x="1912"
     inkscape:window-y="-8"
     inkscape:window-maximized="1"
     inkscape:current-layer="svg2346" /><defs
     id="defs2343" /><g
     id="layer1"
     transform="translate(-2.0789246,-2.4892582)"
     inkscape:label="meynde_base"
     style="display:none"
     sodipodi:insensitive="true"><circle
       style="fill:#64829b;stroke:#64829b;stroke-width:0.929;stroke-dasharray:none;stroke-opacity:1"
       id="path2531"
       cx="8.5796099"
       cy="-8.9899435"
       r="6.0376225"
       transform="scale(1,-1)" /><text
       xml:space="preserve"
       style="font-size:9.38389px;font-family:'Playfair Display';-inkscape-font-specification:'Playfair Display';display:none;opacity:1;fill:#ffffff;fill-opacity:1;stroke:none;stroke-width:1.00012"
       x="4.3744512"
       y="12.203571"
       id="text2951"><tspan
         id="tspan2949"
         style="font-size:9.38389px;fill:#ffffff;fill-opacity:1;stroke:none;stroke-width:1.00012"
         x="4.3744512"
         y="12.203571">M</tspan></text><g
       aria-label="M"
       id="text6497"
       style="font-size:9.38389px;font-family:'Playfair Display';-inkscape-font-specification:'Playfair Display';display:inline;opacity:1;fill:#ffffff;stroke-width:1.00012"><path
         id="path510"
         d="m 4.7687961,5.5599851 v 0.1875855 c 0.2127013,0.00626 0.3721732,0.031139 0.4785238,0.074931 0.1126065,0.037535 0.1872571,0.1127026 0.2247924,0.2253092 0.037535,0.1063506 0.056327,0.27496 0.056327,0.5064291 V 8.524662 h 0.179834 c 0.00761,-1.2539972 0.036174,-2.3641968 0.036174,-2.3641968 L 8.1091607,12.250533 H 8.2595391 L 10.5209,6.1770017 v 5.0317343 c 0,0.225213 -0.0188,0.394339 -0.05633,0.506946 -0.03753,0.112609 -0.112702,0.187779 -0.225309,0.225309 -0.106351,0.03753 -0.2658225,0.06242 -0.4785235,0.07493 v 0.187585 c 0.1313743,-0.01247 0.3035465,-0.0186 0.5162475,-0.0186 0.212701,-0.0063 0.440732,-0.0093 0.684713,-0.0093 0.218957,0 0.434805,0.003 0.647505,0.0093 0.218958,0 0.400784,0.0061 0.54467,0.0186 v -0.187585 c -0.212701,-0.01251 -0.375735,-0.0374 -0.488342,-0.07493 -0.106353,-0.03754 -0.177961,-0.112702 -0.215491,-0.225309 -0.03753,-0.112607 -0.05633,-0.281733 -0.05633,-0.506946 V 6.5542397 c 0,-0.2314691 0.0188,-0.4000785 0.05633,-0.5064291 0.03754,-0.1126068 0.10914,-0.1877743 0.215491,-0.2253092 0.112607,-0.043794 0.275641,-0.068681 0.488342,-0.074931 V 5.5599851 c -0.143886,0.00626 -0.325712,0.012354 -0.54467,0.018604 -0.2127,0.00625 -0.428548,0.0093 -0.647505,0.0093 H 10.736907 10.5209 L 8.5024183,10.996346 6.4389784,5.5599851 c -0.1000947,0.00626 -0.2250288,0.012354 -0.3751709,0.018604 -0.1438862,0.00625 -0.285083,0.0093 -0.4227132,0.0093 -0.156398,0 -0.3158699,-0.00305 -0.4785238,-0.0093 -0.1563979,-0.00626 -0.2874237,-0.012353 -0.3937744,-0.018604 z m 0.7596435,5.5340289 v 0.02119 c 0,0.225212 -0.018792,0.403476 -0.056327,0.534851 -0.037535,0.125119 -0.1121859,0.215518 -0.2247924,0.271818 -0.1063506,0.05005 -0.2658222,0.08154 -0.4785238,0.09405 v 0.187585 c 0.1063507,-0.01247 0.2373765,-0.0186 0.3937744,-0.0186 0.1626539,-0.0063 0.3221258,-0.0093 0.4785238,-0.0093 0.1626539,0 0.3348258,0.003 0.5162475,0.0093 0.1814217,0 0.3287102,0.0061 0.4413168,0.0186 v -0.187585 c -0.2439809,-0.01251 -0.428853,-0.044 -0.5539714,-0.09405 -0.1188626,-0.0563 -0.2001218,-0.146699 -0.2439128,-0.271818 -0.037535,-0.131375 -0.046927,-0.355819 -0.056327,-0.534851 -3.589e-4,-0.0068 -6.805e-4,-0.01429 -0.00103,-0.02119 z"
         style="display:inline" /></g><path
       style="display:none;opacity:1;fill:#64829b;fill-opacity:1;stroke:none;stroke-width:1.64467;stroke-dasharray:none;stroke-opacity:1"
       d="M 5.3088046,8.5245442 H 5.9890498 V 11.093896 H 5.2764123 Z"
       id="path3159" /></g><g
     id="g703"
     transform="translate(-2.0789246,-2.4892582)"
     inkscape:label="meynde_conduccion"
     style="fill:#64829b;fill-opacity:1"><circle
       style="fill:#64829b;fill-opacity:1;stroke:#64829b;stroke-width:0.132292;stroke-dasharray:none;stroke-opacity:1"
       id="circle691"
       transform="scale(1,-1)"
       cy="-8.9899435"
       cx="8.5796099"
       r="6.4345393" /><path
       id="path697"
       d="m 4.7687961,5.5599851 v 0.1875855 c 0.2127013,0.00626 0.3721732,0.031139 0.4785238,0.074931 0.1126065,0.037535 0.1872571,0.1127026 0.2247924,0.2253092 0.037535,0.1063506 0.056327,0.27496 0.056327,0.5064291 V 8.524662 h 0.179834 c 0.00761,-1.2539972 0.036174,-2.3641968 0.036174,-2.3641968 L 8.1091607,12.250533 H 8.2595391 L 10.5209,6.1770017 v 5.0317343 c 0,0.225213 -0.0188,0.394339 -0.05633,0.506946 -0.03753,0.112609 -0.112702,0.187779 -0.225309,0.225309 -0.106351,0.03753 -0.2658225,0.06242 -0.4785235,0.07493 v 0.187585 c 0.1313743,-0.01247 0.3035465,-0.0186 0.5162475,-0.0186 0.212701,-0.0063 0.440732,-0.0093 0.684713,-0.0093 0.218957,0 0.434805,0.003 0.647505,0.0093 0.218958,0 0.400784,0.0061 0.54467,0.0186 v -0.187585 c -0.212701,-0.01251 -0.375735,-0.0374 -0.488342,-0.07493 -0.106353,-0.03754 -0.177961,-0.112702 -0.215491,-0.225309 -0.03753,-0.112607 -0.05633,-0.281733 -0.05633,-0.506946 V 6.5542397 c 0,-0.2314691 0.0188,-0.4000785 0.05633,-0.5064291 0.03754,-0.1126068 0.10914,-0.1877743 0.215491,-0.2253092 0.112607,-0.043794 0.275641,-0.068681 0.488342,-0.074931 V 5.5599851 c -0.143886,0.00626 -0.325712,0.012354 -0.54467,0.018604 -0.2127,0.00625 -0.428548,0.0093 -0.647505,0.0093 H 10.736907 10.5209 L 8.5024183,10.996346 6.4389784,5.5599851 c -0.1000947,0.00626 -0.2250288,0.012354 -0.3751709,0.018604 -0.1438862,0.00625 -0.285083,0.0093 -0.4227132,0.0093 -0.156398,0 -0.3158699,-0.00305 -0.4785238,-0.0093 -0.1563979,-0.00626 -0.2874237,-0.012353 -0.3937744,-0.018604 z m 0.7596435,5.5340289 v 0.02119 c 0,0.225212 -0.018792,0.403476 -0.056327,0.534851 -0.037535,0.125119 -0.1121859,0.215518 -0.2247924,0.271818 -0.1063506,0.05005 -0.2658222,0.08154 -0.4785238,0.09405 v 0.187585 c 0.1063507,-0.01247 0.2373765,-0.0186 0.3937744,-0.0186 0.1626539,-0.0063 0.3221258,-0.0093 0.4785238,-0.0093 0.1626539,0 0.3348258,0.003 0.5162475,0.0093 0.1814217,0 0.3287102,0.0061 0.4413168,0.0186 v -0.187585 c -0.2439809,-0.01251 -0.428853,-0.044 -0.5539714,-0.09405 -0.1188626,-0.0563 -0.2001218,-0.146699 -0.2439128,-0.271818 -0.037535,-0.131375 -0.046927,-0.355819 -0.056327,-0.534851 -3.589e-4,-0.0068 -6.805e-4,-0.01429 -0.00103,-0.02119 z"
       style="font-size:9.38389px;font-family:'Playfair Display';-inkscape-font-specification:'Playfair Display';display:inline;opacity:1;fill:#f9f9f9;fill-opacity:1;stroke-width:1.00012" /></g></svg>
