<?xml version="1.0" standalone="no"?>
<!DOCTYPE svg PUBLIC "-//W3C//DTD SVG 20010904//EN"
 "http://www.w3.org/TR/2001/REC-SVG-20010904/DTD/svg10.dtd">
<svg version="1.0" xmlns="http://www.w3.org/2000/svg"
 width="1024.000000pt" height="1024.000000pt" viewBox="0 0 1024.000000 1024.000000"
 preserveAspectRatio="xMidYMid meet">
<metadata>
Created by potrace 1.14, written by Peter Selinger 2001-2017
</metadata>
<g transform="translate(0.000000,1024.000000) scale(0.100000,-0.100000)"
fill="#000000" stroke="none">
<path d="M4785 10230 c-1319 -97 -2499 -656 -3399 -1609 -1037 -1099 -1533
-2622 -1346 -4132 271 -2186 1912 -3953 4075 -4388 368 -73 594 -95 1005 -95
359 0 507 11 809 60 1354 217 2558 963 3355 2077 496 693 812 1506 916 2351
94 764 19 1510 -225 2241 -239 717 -613 1346 -1123 1888 -855 908 -1980 1462
-3232 1592 -182 19 -661 28 -835 15z m-2000 -2425 c176 0 394 3 485 7 l165 8
810 -2136 c556 -1465 813 -2130 819 -2121 5 8 363 963 796 2123 l787 2109 494
6 c272 3 560 10 642 14 l147 7 0 -74 0 -75 -94 -6 c-218 -14 -356 -65 -413
-151 -39 -57 -59 -120 -73 -230 -7 -55 -10 -724 -8 -2136 3 -1930 5 -2059 21
-2121 52 -192 142 -248 451 -281 l116 -12 0 -73 0 -74 -87 8 c-115 10 -1592
10 -1705 0 l-88 -8 0 74 0 74 80 7 c275 23 398 74 454 189 63 128 60 -6 63
2296 2 1152 1 2093 -1 2090 -4 -4 -1647 -4409 -1748 -4687 l-30 -83 -60 3 -60
3 -926 2387 -927 2387 -7 -72 c-7 -71 -28 -1314 -28 -1614 l0 -153 -69 0 -70
0 -4 888 c-3 748 -6 899 -19 963 -30 146 -74 212 -171 258 -79 37 -179 59
-306 67 l-101 7 0 74 0 73 173 -7 c94 -5 316 -8 492 -8z m109 -4470 c10 -179
30 -297 60 -359 32 -65 100 -130 169 -161 64 -30 222 -62 345 -71 l92 -7 0
-74 0 -74 -72 8 c-97 10 -1203 10 -1295 0 l-73 -8 0 74 0 74 78 7 c186 17 314
61 386 132 81 81 117 208 132 467 l6 117 83 0 82 0 7 -125z"/>
</g>
</svg>
